<?xml version="1.0" encoding="utf-8"?>
<svg viewBox="0 0 776 776" xmlns="http://www.w3.org/2000/svg">
  <g stroke-width="2.00" fill="none" stroke-linecap="butt">
    <path stroke="#8a979f" vector-effect="non-scaling-stroke" d=" M 461.46 557.32 Q 465.61 553.02 468.49 548.12 Q 468.63 547.88 468.90 547.82 Q 469.04 547.78 469.13 547.65 Q 475.16 539.20 478.94 529.74 C 481.82 522.53 484.75 513.97 488.30 508.04 Q 498.60 490.85 518.88 485.53 C 544.12 478.90 572.07 486.38 578.52 514.57 C 583.14 534.73 575.42 551.18 563.22 566.64 Q 543.02 592.22 516.20 611.28 Q 507.88 617.20 499.56 622.41 Q 459.36 647.57 412.76 657.92 C 394.14 662.06 377.56 665.04 359.27 665.72 Q 329.36 666.84 301.65 663.12 Q 285.67 660.97 268.42 657.25 Q 243.85 651.95 218.34 641.23 C 198.90 633.06 181.16 622.33 163.65 609.49 Q 140.64 592.62 122.74 571.51 Q 104.47 549.98 91.77 527.37 Q 82.97 511.70 75.90 491.48 Q 71.33 478.39 69.10 469.14 Q 63.46 445.68 61.92 418.08 Q 60.51 392.72 63.62 369.28 Q 65.43 355.57 69.51 338.18 C 71.78 328.49 74.94 319.20 78.12 309.79 Q 85.61 287.62 97.54 266.29 Q 97.97 265.51 98.36 264.66 Q 98.68 263.93 99.16 263.28 Q 99.75 262.46 100.35 261.50 Q 109.74 246.36 113.86 240.55 Q 123.07 227.60 135.70 212.37 Q 136.83 211.02 138.46 209.36 Q 139.90 207.89 141.27 206.37 C 142.48 205.03 143.92 204.12 145.03 202.67 Q 146.23 201.10 147.50 199.73 Q 167.32 178.42 193.10 159.23 C 207.63 148.42 223.96 139.11 239.95 131.33 C 276.98 113.32 318.35 100.91 360.03 96.81 C 390.37 93.83 421.65 97.06 452.90 103.00 C 472.68 106.76 491.48 112.69 510.92 120.34 C 522.41 124.87 533.70 130.38 541.12 140.16 Q 548.22 149.51 549.00 160.15 C 550.37 178.86 540.30 189.00 523.35 194.21 Q 495.81 202.67 466.15 211.81 Q 458.81 214.08 450.82 216.98 Q 441.36 220.41 436.61 223.59 Q 420.28 234.53 416.04 253.29 A 1.52 1.52 0.0 0 1 415.30 254.28 Q 412.58 255.83 409.76 256.74 C 368.84 269.97 324.54 283.58 287.00 295.54 C 276.30 298.95 268.81 306.98 269.64 318.80 C 270.36 329.24 279.12 336.69 289.27 336.59 Q 293.33 336.55 299.45 334.43 C 313.22 329.67 326.85 324.67 341.12 319.86 Q 377.44 307.63 413.75 295.37 Q 418.29 293.84 423.79 292.27 A 1.22 1.22 0.0 0 1 425.18 292.84 Q 430.25 301.79 438.18 308.58 C 450.05 318.74 467.08 322.38 482.62 319.33 Q 488.58 318.16 495.97 315.65 Q 541.86 300.08 580.22 284.98 C 602.57 276.18 624.86 267.50 646.97 258.36 Q 678.21 245.43 711.07 232.10 Q 722.07 227.65 732.66 222.40 Q 752.20 212.73 759.04 192.78 C 762.19 183.57 761.39 174.27 757.97 165.16 C 752.36 150.22 739.13 138.92 722.99 137.58 Q 714.33 136.86 706.94 138.86 Q 668.11 149.35 626.00 162.05 Q 606.37 167.97 585.61 174.67 Q 584.97 174.88 584.98 174.20 Q 585.04 170.50 585.23 167.25 Q 587.32 131.17 562.80 108.23 Q 555.48 101.39 546.87 96.26 Q 535.73 89.63 526.93 85.91 C 492.86 71.53 455.95 63.32 417.89 59.38 C 397.66 57.28 376.53 57.60 356.65 59.15 Q 350.96 59.59 345.03 60.47 Q 324.07 63.58 305.17 67.91 Q 285.11 72.51 259.36 81.56 Q 239.19 88.66 218.26 99.17 C 205.34 105.65 192.48 113.47 180.52 121.31 Q 146.94 143.31 116.83 175.50 C 106.82 186.19 98.22 197.61 89.49 209.22 C 77.78 224.77 67.66 242.18 58.67 259.81 Q 49.18 278.41 41.73 300.61 Q 34.82 321.21 30.94 339.22 C 24.37 369.68 21.56 400.46 25.11 431.19 Q 27.32 450.30 30.57 465.91 Q 37.57 499.59 52.81 532.48 C 56.30 540.02 60.48 547.15 64.50 554.26 Q 70.74 565.27 79.46 576.97 Q 94.56 597.24 114.62 617.38 Q 121.90 624.69 128.72 630.32 Q 144.65 643.48 157.74 651.75 Q 172.92 661.34 189.49 669.74 C 233.59 692.12 283.10 702.37 333.20 703.86 Q 377.41 705.18 420.53 694.94 Q 430.51 692.57 439.98 689.89 Q 476.16 679.63 507.56 662.24 Q 523.67 653.33 539.06 642.63 Q 561.38 627.11 580.77 606.00 Q 593.25 592.41 602.50 577.16 C 615.50 555.71 620.63 530.93 614.27 506.51 Q 612.34 499.10 609.93 490.93 A 0.55 0.55 0.0 0 1 610.46 490.22 Q 647.47 490.15 671.11 464.19 Q 677.80 456.85 681.99 448.64 C 689.22 434.50 693.22 420.36 691.89 404.24 C 688.80 366.96 661.35 338.29 625.50 329.87 C 600.36 323.96 573.21 325.54 547.44 331.12 Q 517.13 337.67 489.27 347.17 Q 456.10 358.48 441.40 364.64 C 414.57 375.87 389.51 390.80 376.44 417.62 Q 371.69 427.35 370.84 439.16 A 0.72 0.72 0.0 0 1 369.97 439.81 Q 361.75 437.92 353.22 437.62 C 321.61 436.48 293.50 458.24 282.15 486.59 Q 278.69 495.24 277.74 506.38 Q 274.82 540.62 297.61 567.32 Q 307.61 579.03 319.35 585.76 Q 334.82 594.62 351.09 597.27 C 384.36 602.70 421.97 592.82 448.03 570.52 Q 455.13 564.45 461.24 557.76 Q 461.33 557.66 461.35 557.52 Q 461.37 557.41 461.46 557.32"/>
    <path stroke="#8a979f" vector-effect="non-scaling-stroke" d=" M 427.12 153.78 A 23.87 23.87 0.0 0 0 403.25 129.91 A 23.87 23.87 0.0 0 0 379.38 153.78 A 23.87 23.87 0.0 0 0 403.25 177.65 A 23.87 23.87 0.0 0 0 427.12 153.78"/>
    <path stroke="#8a979f" vector-effect="non-scaling-stroke" d=" M 345.38 212.41 A 63.67 63.67 0.0 0 0 281.71 148.74 A 63.67 63.67 0.0 0 0 218.04 212.41 A 63.67 63.67 0.0 0 0 281.71 276.08 A 63.67 63.67 0.0 0 0 345.38 212.41"/>
    <path stroke="#8a979f" vector-effect="non-scaling-stroke" d=" M 146.39 271.49 C 126.47 280.60 112.71 300.96 110.75 322.75 Q 108.16 351.60 126.65 373.34 Q 135.36 383.58 147.61 388.62 Q 167.61 396.85 186.86 392.95 C 205.32 389.21 219.29 379.43 228.84 362.77 C 241.60 340.51 240.21 314.21 226.13 292.90 C 219.82 283.35 209.71 275.58 199.47 270.76 C 183.33 263.16 162.74 264.01 146.39 271.49"/>
    <path stroke="#8a979f" vector-effect="non-scaling-stroke" d=" M 163.7986 539.2357 A 64.06 63.21 84.6 0 0 220.6995 469.5114 A 64.06 63.21 84.6 0 0 151.7414 411.6843 A 64.06 63.21 84.6 0 0 94.8405 481.4086 A 64.06 63.21 84.6 0 0 163.7986 539.2357"/>
    <path stroke="#8a979f" vector-effect="non-scaling-stroke" d=" M 252.7322 616.4898 A 24.32 24.06 72.7 0 0 268.4715 586.1152 A 24.32 24.06 72.7 0 0 238.2678 570.0502 A 24.32 24.06 72.7 0 0 222.5285 600.4248 A 24.32 24.06 72.7 0 0 252.7322 616.4898"/>
    <path stroke="#8a979f" vector-effect="non-scaling-stroke" d=" M 548.18 255.93 C 596.14 237.75 661.02 210.82 719.52 186.96 C 727.34 183.78 723.69 175.65 716.22 176.78 Q 710.43 177.66 705.00 179.37 C 690.63 183.89 676.21 187.55 661.67 191.84 Q 618.08 204.71 576.71 217.09 Q 567.36 219.89 557.46 223.00 Q 510.63 237.71 462.23 252.71 C 455.28 254.87 447.85 261.50 452.45 269.57 Q 457.00 277.57 465.65 280.60 C 472.12 282.88 478.93 281.62 485.24 279.32 Q 516.33 268.00 548.18 255.93"/>
    <path stroke="#8a979f" vector-effect="non-scaling-stroke" d=" M 413.04 457.61 C 417.15 462.71 425.50 467.31 432.37 467.92 Q 452.61 469.73 474.17 461.83 Q 484.17 458.16 493.73 454.60 Q 507.43 449.51 522.19 447.25 C 540.79 444.40 558.56 448.95 576.68 452.38 Q 585.77 454.11 602.51 453.69 Q 613.77 453.41 621.83 451.12 Q 640.97 445.66 650.51 428.09 C 657.20 415.76 656.49 401.90 649.54 389.96 C 638.81 371.52 618.83 365.04 598.07 364.46 Q 573.76 363.78 549.72 369.37 Q 532.57 373.36 514.22 378.96 Q 481.30 389.00 452.43 401.03 C 440.56 405.97 427.51 413.08 418.13 422.46 C 408.86 431.75 403.85 446.18 413.04 457.61"/>
    <path stroke="#8a979f" vector-effect="non-scaling-stroke" d=" M 404.67 498.42 C 396.40 494.07 387.98 486.15 379.12 481.12 C 365.05 473.13 348.71 471.88 334.65 480.32 C 325.14 486.03 318.14 494.75 315.57 505.73 C 311.17 524.46 321.43 542.64 337.08 552.42 C 349.79 560.37 366.09 562.30 380.96 560.28 Q 406.62 556.78 425.45 539.14 Q 436.35 528.93 443.95 516.88 C 445.89 513.81 447.56 510.20 448.75 506.74 A 0.45 0.44 -83.7 0 0 448.28 506.15 C 433.13 507.95 418.30 505.58 404.67 498.42"/>
    <path stroke="#8a979f" vector-effect="non-scaling-stroke" d=" M 308.1097 211.4243 A 26.35 25.79 -1.6 0 0 281.0499 186.3801 A 26.35 25.79 -1.6 0 0 255.4303 212.8957 A 26.35 25.79 -1.6 0 0 282.4901 237.9399 A 26.35 25.79 -1.6 0 0 308.1097 211.4243"/>
    <path stroke="#8a979f" vector-effect="non-scaling-stroke" d=" M 200.44 329.54 A 26.47 26.47 0.0 0 0 173.97 303.07 A 26.47 26.47 0.0 0 0 147.50 329.54 A 26.47 26.47 0.0 0 0 173.97 356.01 A 26.47 26.47 0.0 0 0 200.44 329.54"/>
    <path stroke="#8a979f" vector-effect="non-scaling-stroke" d=" M 182.7087 467.6191 A 26.14 25.65 -17.8 0 0 149.9789 451.1879 A 26.14 25.65 -17.8 0 0 132.9313 483.6009 A 26.14 25.65 -17.8 0 0 165.6611 500.0321 A 26.14 25.65 -17.8 0 0 182.7087 467.6191"/>
  </g>
  <path d=" M 461.35 557.52 Q 461.33 557.66 461.24 557.76 Q 455.13 564.45 448.03 570.52 C 421.97 592.82 384.36 602.70 351.09 597.27 Q 334.82 594.62 319.35 585.76 Q 307.61 579.03 297.61 567.32 Q 274.82 540.62 277.74 506.38 Q 278.69 495.24 282.15 486.59 C 293.50 458.24 321.61 436.48 353.22 437.62 Q 361.75 437.92 369.97 439.81 A 0.72 0.72 0.0 0 0 370.84 439.16 Q 371.69 427.35 376.44 417.62 C 389.51 390.80 414.57 375.87 441.40 364.64 Q 456.10 358.48 489.27 347.17 Q 517.13 337.67 547.44 331.12 C 573.21 325.54 600.36 323.96 625.50 329.87 C 661.35 338.29 688.80 366.96 691.89 404.24 C 693.22 420.36 689.22 434.50 681.99 448.64 Q 677.80 456.85 671.11 464.19 Q 647.47 490.15 610.46 490.22 A 0.55 0.55 0.0 0 0 609.93 490.93 Q 612.34 499.10 614.27 506.51 C 620.63 530.93 615.50 555.71 602.50 577.16 Q 593.25 592.41 580.77 606.00 Q 561.38 627.11 539.06 642.63 Q 523.67 653.33 507.56 662.24 Q 476.16 679.63 439.98 689.89 Q 430.51 692.57 420.53 694.94 Q 377.41 705.18 333.20 703.86 C 283.10 702.37 233.59 692.12 189.49 669.74 Q 172.92 661.34 157.74 651.75 Q 144.65 643.48 128.72 630.32 Q 121.90 624.69 114.62 617.38 Q 94.56 597.24 79.46 576.97 Q 70.74 565.27 64.50 554.26 C 60.48 547.15 56.30 540.02 52.81 532.48 Q 37.57 499.59 30.57 465.91 Q 27.32 450.30 25.11 431.19 C 21.56 400.46 24.37 369.68 30.94 339.22 Q 34.82 321.21 41.73 300.61 Q 49.18 278.41 58.67 259.81 C 67.66 242.18 77.78 224.77 89.49 209.22 C 98.22 197.61 106.82 186.19 116.83 175.50 Q 146.94 143.31 180.52 121.31 C 192.48 113.47 205.34 105.65 218.26 99.17 Q 239.19 88.66 259.36 81.56 Q 285.11 72.51 305.17 67.91 Q 324.07 63.58 345.03 60.47 Q 350.96 59.59 356.65 59.15 C 376.53 57.60 397.66 57.28 417.89 59.38 C 455.95 63.32 492.86 71.53 526.93 85.91 Q 535.73 89.63 546.87 96.26 Q 555.48 101.39 562.80 108.23 Q 587.32 131.17 585.23 167.25 Q 585.04 170.50 584.98 174.20 Q 584.97 174.88 585.61 174.67 Q 606.37 167.97 626.00 162.05 Q 668.11 149.35 706.94 138.86 Q 714.33 136.86 722.99 137.58 C 739.13 138.92 752.36 150.22 757.97 165.16 C 761.39 174.27 762.19 183.57 759.04 192.78 Q 752.20 212.73 732.66 222.40 Q 722.07 227.65 711.07 232.10 Q 678.21 245.43 646.97 258.36 C 624.86 267.50 602.57 276.18 580.22 284.98 Q 541.86 300.08 495.97 315.65 Q 488.58 318.16 482.62 319.33 C 467.08 322.38 450.05 318.74 438.18 308.58 Q 430.25 301.79 425.18 292.84 A 1.22 1.22 0.0 0 0 423.79 292.27 Q 418.29 293.84 413.75 295.37 Q 377.44 307.63 341.12 319.86 C 326.85 324.67 313.22 329.67 299.45 334.43 Q 293.33 336.55 289.27 336.59 C 279.12 336.69 270.36 329.24 269.64 318.80 C 268.81 306.98 276.30 298.95 287.00 295.54 C 324.54 283.58 368.84 269.97 409.76 256.74 Q 412.58 255.83 415.30 254.28 A 1.52 1.52 0.0 0 0 416.04 253.29 Q 420.28 234.53 436.61 223.59 Q 441.36 220.41 450.82 216.98 Q 458.81 214.08 466.15 211.81 Q 495.81 202.67 523.35 194.21 C 540.30 189.00 550.37 178.86 549.00 160.15 Q 548.22 149.51 541.12 140.16 C 533.70 130.38 522.41 124.87 510.92 120.34 C 491.48 112.69 472.68 106.76 452.90 103.00 C 421.65 97.06 390.37 93.83 360.03 96.81 C 318.35 100.91 276.98 113.32 239.95 131.33 C 223.96 139.11 207.63 148.42 193.10 159.23 Q 167.32 178.42 147.50 199.73 Q 146.23 201.10 145.03 202.67 C 143.92 204.12 142.48 205.03 141.27 206.37 Q 139.90 207.89 138.46 209.36 Q 136.83 211.02 135.70 212.37 Q 123.07 227.60 113.86 240.55 Q 109.74 246.36 100.35 261.50 Q 99.75 262.46 99.16 263.28 Q 98.68 263.93 98.36 264.66 Q 97.97 265.51 97.54 266.29 Q 85.61 287.62 78.12 309.79 C 74.94 319.20 71.78 328.49 69.51 338.18 Q 65.43 355.57 63.62 369.28 Q 60.51 392.72 61.92 418.08 Q 63.46 445.68 69.10 469.14 Q 71.33 478.39 75.90 491.48 Q 82.97 511.70 91.77 527.37 Q 104.47 549.98 122.74 571.51 Q 140.64 592.62 163.65 609.49 C 181.16 622.33 198.90 633.06 218.34 641.23 Q 243.85 651.95 268.42 657.25 Q 285.67 660.97 301.65 663.12 Q 329.36 666.84 359.27 665.72 C 377.56 665.04 394.14 662.06 412.76 657.92 Q 459.36 647.57 499.56 622.41 Q 507.88 617.20 516.20 611.28 Q 543.02 592.22 563.22 566.64 C 575.42 551.18 583.14 534.73 578.52 514.57 C 572.07 486.38 544.12 478.90 518.88 485.53 Q 498.60 490.85 488.30 508.04 C 484.75 513.97 481.82 522.53 478.94 529.74 Q 475.16 539.20 469.13 547.65 Q 469.04 547.78 468.90 547.82 Q 468.63 547.88 468.49 548.12 Q 465.61 553.02 461.46 557.32 Q 461.37 557.41 461.35 557.52 Z M 548.18 255.93 C 596.14 237.75 661.02 210.82 719.52 186.96 C 727.34 183.78 723.69 175.65 716.22 176.78 Q 710.43 177.66 705.00 179.37 C 690.63 183.89 676.21 187.55 661.67 191.84 Q 618.08 204.71 576.71 217.09 Q 567.36 219.89 557.46 223.00 Q 510.63 237.71 462.23 252.71 C 455.28 254.87 447.85 261.50 452.45 269.57 Q 457.00 277.57 465.65 280.60 C 472.12 282.88 478.93 281.62 485.24 279.32 Q 516.33 268.00 548.18 255.93 Z M 413.04 457.61 C 417.15 462.71 425.50 467.31 432.37 467.92 Q 452.61 469.73 474.17 461.83 Q 484.17 458.16 493.73 454.60 Q 507.43 449.51 522.19 447.25 C 540.79 444.40 558.56 448.95 576.68 452.38 Q 585.77 454.11 602.51 453.69 Q 613.77 453.41 621.83 451.12 Q 640.97 445.66 650.51 428.09 C 657.20 415.76 656.49 401.90 649.54 389.96 C 638.81 371.52 618.83 365.04 598.07 364.46 Q 573.76 363.78 549.72 369.37 Q 532.57 373.36 514.22 378.96 Q 481.30 389.00 452.43 401.03 C 440.56 405.97 427.51 413.08 418.13 422.46 C 408.86 431.75 403.85 446.18 413.04 457.61 Z M 404.67 498.42 C 396.40 494.07 387.98 486.15 379.12 481.12 C 365.05 473.13 348.71 471.88 334.65 480.32 C 325.14 486.03 318.14 494.75 315.57 505.73 C 311.17 524.46 321.43 542.64 337.08 552.42 C 349.79 560.37 366.09 562.30 380.96 560.28 Q 406.62 556.78 425.45 539.14 Q 436.35 528.93 443.95 516.88 C 445.89 513.81 447.56 510.20 448.75 506.74 A 0.45 0.44 -83.7 0 0 448.28 506.15 C 433.13 507.95 418.30 505.58 404.67 498.42 Z" style="stroke-width: 0px; fill: rgb(255, 255, 255);"/>
  <circle cx="403.25" cy="153.78" r="23.87" style="fill: rgb(255, 255, 255);"/>
  <path d=" M 345.38 212.41 A 63.67 63.67 0.0 0 1 281.71 276.08 A 63.67 63.67 0.0 0 1 218.04 212.41 A 63.67 63.67 0.0 0 1 281.71 148.74 A 63.67 63.67 0.0 0 1 345.38 212.41 Z M 308.1097 211.4243 A 26.35 25.79 -1.6 0 0 281.0499 186.3801 A 26.35 25.79 -1.6 0 0 255.4303 212.8957 A 26.35 25.79 -1.6 0 0 282.4901 237.9399 A 26.35 25.79 -1.6 0 0 308.1097 211.4243 Z" style="fill: rgb(255, 255, 255);"/>
  <path d=" M 146.39 271.49 C 162.74 264.01 183.33 263.16 199.47 270.76 C 209.71 275.58 219.82 283.35 226.13 292.90 C 240.21 314.21 241.60 340.51 228.84 362.77 C 219.29 379.43 205.32 389.21 186.86 392.95 Q 167.61 396.85 147.61 388.62 Q 135.36 383.58 126.65 373.34 Q 108.16 351.60 110.75 322.75 C 112.71 300.96 126.47 280.60 146.39 271.49 Z M 200.44 329.54 A 26.47 26.47 0.0 0 0 173.97 303.07 A 26.47 26.47 0.0 0 0 147.50 329.54 A 26.47 26.47 0.0 0 0 173.97 356.01 A 26.47 26.47 0.0 0 0 200.44 329.54 Z" style="fill: rgb(255, 255, 255);"/>
  <path d=" M 163.7986 539.2357 A 64.06 63.21 84.6 0 1 94.8405 481.4086 A 64.06 63.21 84.6 0 1 151.7414 411.6843 A 64.06 63.21 84.6 0 1 220.6995 469.5114 A 64.06 63.21 84.6 0 1 163.7986 539.2357 Z M 182.7087 467.6191 A 26.14 25.65 -17.8 0 0 149.9789 451.1879 A 26.14 25.65 -17.8 0 0 132.9313 483.6009 A 26.14 25.65 -17.8 0 0 165.6611 500.0321 A 26.14 25.65 -17.8 0 0 182.7087 467.6191 Z" style="fill: rgb(255, 255, 255);"/>
  <ellipse cx="0.00" cy="0.00" transform="matrix(0.29737492493142176, 0.9547607836636521, -0.9547607836636521, 0.29737492493142176, 245.50000365823504, 593.2700283716622)" rx="24.32" ry="24.06" style="fill: rgb(255, 255, 255);"/>
</svg>